<svg xmlns="http://www.w3.org/2000/svg" width="32" height="32" fill="#fff" viewBox="0 0 512 512">
  <path
    d="M375.427 0h-6.795a38.876 38.876 0 00-31.939 16.719L312.04 52.274c-12.921 18.635-33.337 29.321-56.011 29.321h-.013c-22.681-.004-43.097-10.698-56.014-29.341L175.385 16.73A38.875 38.875 0 00143.44 0h-4.165c-4.075 0-7.209 3.607-6.647 7.643.508 3.641.912 6.528 1.022 7.275 5.155 28.797 19.961 57.144 40.64 77.803 16.132 16.116 43.607 35.327 82.892 35.327 38.869 0 65.942-19.154 81.808-35.221 20.358-20.619 35.186-48.519 41.752-78.565.075-.36.572-2.807 1.263-6.209.841-4.157-2.336-8.053-6.578-8.053z" />
  <path
    d="M317.298 381.353h140.924a6.712 6.712 0 006.712-6.712v-13.886a6.712 6.712 0 00-6.712-6.712H317.297c-8.093 0-15.057-6.219-15.437-14.303-.407-8.631 6.471-15.756 15.013-15.756h141.349a6.712 6.712 0 006.712-6.712v-12.628a6.712 6.712 0 00-6.712-6.712H317.297c-8.093 0-15.057-6.219-15.437-14.303-.407-8.631 6.471-15.756 15.013-15.756h141.349a6.712 6.712 0 006.712-6.712v-45.255l-1.608-3.191c-14.504-28.773-22.345-61.011-22.676-93.229-.331-32.218 6.847-64.612 20.755-93.671 2.76-5.761 2.295-12.451-1.263-17.792C456.723 2.893 450.8 0 444.638 0h-24.845a6.715 6.715 0 00-6.579 5.384c-2.697 13.323-3.041 14.996-3.107 15.298-7.764 35.53-25.425 68.653-49.73 93.266-28.528 28.891-64.213 44.161-103.197 44.161-39.234 0-75.245-15.257-104.137-44.122-24.974-24.949-42.84-59.201-49.019-93.972-.088-.494-.211-1.331-2.003-14.22A6.716 6.716 0 0095.373 0H67.016c-5.08 0-10.049 1.938-13.522 5.645-4.966 5.3-6.244 12.836-3.52 19.345l4.5 10.749c22.404 53.506 21.787 114.615-1.692 167.658l-5.713 12.906v45.487a6.712 6.712 0 006.712 6.712H194.42c8.093 0 15.057 6.219 15.437 14.303.407 8.631-6.471 15.756-15.013 15.756H53.78a6.712 6.712 0 00-6.712 6.712v12.628a6.712 6.712 0 006.712 6.712h140.639c8.093 0 15.057 6.219 15.437 14.303.407 8.631-6.471 15.756-15.013 15.756H53.78a6.712 6.712 0 00-6.712 6.712v13.886a6.712 6.712 0 006.712 6.712h140.639c8.093 0 15.057 6.219 15.437 14.303.407 8.631-6.471 15.756-15.013 15.756H53.78a6.712 6.712 0 00-6.712 6.712v28.106c0 17.476 11.498 32.869 28.256 37.827l7.162 2.119c56.763 16.798 115.127 25.194 173.514 25.194 58.371 0 116.764-8.4 173.513-25.194l7.164-2.12c16.758-4.959 28.256-20.352 28.256-37.827v-28.735a6.712 6.712 0 00-6.712-6.712H316.873v-.001c-8.542 0-15.419-7.125-15.013-15.756.381-8.082 7.345-14.301 15.438-14.301z" />
</svg>
