<svg width="32" height="32" fill="#fff" viewBox="0 0 512 512" xmlns="http://www.w3.org/2000/svg">
  <path
    d="M15 271H0v221.941l101.889-175.045C83.117 289.73 51.392 271 15 271zM89.35 481.119C120.326 501.329 180.577 512 226 512c40.225 0 98.559-8.101 129.394-25.898C394.036 463.792 437.82 452 482 452c16.538 0 30-13.462 30-30v-66.068C512 234.291 478.411 96.9 426.409 7.456L422.073 0H332l-30 30v31l30 30 30-30 30.146 30.132c-.747 3.706-1.699 8.13-2.798 13.257-8.54 39.639-25.913 120.454-27.261 241.611h-4.38c-17.271-29.121-84.145-45-131.708-45-27.288 0-61.463 4.832-87.514 13.766L24.15 511.075c25.34-2.226 48.241-12.945 65.2-29.956z" />
</svg>
