<svg width="32" height="32" fill="#fff" viewBox="0 0 512.327 512.327" xmlns="http://www.w3.org/2000/svg">
  <path
    d="M422.94 169.95c-2.426 0-4.834.214-7.214.621v-10.845C415.726 71.653 344.073 0 256 0c-45.949 0-89.706 19.816-120.051 54.366a7.5 7.5 0 0011.27 9.898C174.717 32.956 214.366 15 256 15c79.802 0 144.726 64.924 144.726 144.726v76.94c0 18.207-2.292 36.272-6.756 53.773-.021.086-.046.17-.064.256a217.652 217.652 0 01-23.57 56.88 7.5 7.5 0 1012.904 7.647 232.535 232.535 0 0022.683-51.788c5.451 2.314 11.206 3.517 17.017 3.517 30.135 0 34.475-24.415 36.807-37.531 1.365-7.679 1.417-8.171 5.501-14.444 4.122-6.33 9.252-14.208 9.252-30.195 0-33.822-19.757-54.831-51.56-54.831zm29.738 76.84c-5.379 8.262-6.021 10.559-7.7 20.004-2.702 15.196-5.695 25.156-22.039 25.156-4.541 0-8.938-1.087-13.127-3.231a232.546 232.546 0 005.913-52.053v-10.129c.899-1.388 2.578-3.657 4.997-5.598 4.781-3.839 10.149-4.534 16.412-2.127a7.499 7.499 0 009.691-4.31 7.5 7.5 0 00-4.31-9.691c-10.852-4.172-19.879-2.488-26.791 1.409v-20.314a27.894 27.894 0 017.214-.956c32.998 0 36.56 27.854 36.56 39.83.002 11.534-3.159 16.388-6.82 22.01zM363.449 371.944a7.5 7.5 0 00-10.404 2.064c-11.845 17.495-12.737 19.561-16.73 24.217-.057.067-.114.133-.169.202-11.572 13.379-28.413 21.178-46.37 21.178h-62.16c-19.563 0-38.112-9.447-49.617-25.271l-25.129-34.561c-15.432-21.225-26.733-44.642-33.63-69.378a7.505 7.505 0 00-.456-1.682c-4.962-18.368-7.51-37.447-7.51-56.888v-72.1c0-24.765 6.36-49.2 18.393-70.665 2.025-3.613.739-8.184-2.875-10.209s-8.184-.739-10.209 2.875c-13.286 23.7-20.309 50.671-20.309 78v10.845a42.758 42.758 0 00-7.214-.621c-31.803 0-51.56 21.009-51.56 54.83 0 15.988 5.13 23.865 9.252 30.195 4.079 6.265 4.136 6.759 5.501 14.444 2.332 13.116 6.672 37.531 36.807 37.531 6.266 0 12.445-1.396 18.261-4.074 7.482 23.331 18.688 45.46 33.418 65.719l21.761 29.929V504.5a7.5 7.5 0 007.5 7.5h22.231a7.5 7.5 0 000-15H177.5v-81.176c13.763 11.954 31.571 18.781 50.117 18.781h62.16a76.218 76.218 0 0044.724-14.462V497H224.077a7.5 7.5 0 000 15H342a7.5 7.5 0 007.5-7.5v-98.693c3.427-4.31 4.239-5.994 16.013-23.459a7.5 7.5 0 00-2.064-10.404zM89.06 291.95c-16.343 0-19.337-9.96-22.039-25.156-1.683-9.465-2.324-11.747-7.7-20.004-3.661-5.621-6.822-10.476-6.822-22.01 0-11.976 3.563-39.83 36.56-39.83 2.431 0 4.844.323 7.214.956v20.314c-6.911-3.896-15.938-5.58-26.791-1.409a7.5 7.5 0 005.381 14.001c8.987-3.455 16.291-.173 21.409 7.731v5.283c0 19.22 2.332 38.109 6.877 56.372-4.473 2.488-9.194 3.752-14.089 3.752z" />
  <path
    d="M297.423 277.294a7.5 7.5 0 00-10.328 2.416c-.085.137-9.112 13.687-31.095 13.687-21.824 0-30.682-13.059-31.13-13.743a7.5 7.5 0 00-12.708 7.968c.527.848 13.25 20.775 43.839 20.775s43.312-19.927 43.839-20.775a7.502 7.502 0 00-2.417-10.328zM189.401 158.451c-25.182-2.175-46.128 5.491-47.007 5.819a7.5 7.5 0 005.232 14.058c.184-.068 18.625-6.814 40.487-4.932 19.539 1.685 29.534 16.96 29.989 17.671a7.5 7.5 0 0012.713-7.961c-.566-.91-14.194-22.309-41.414-24.655zM374.019 173.915a7.5 7.5 0 00-4.413-9.645c-.879-.327-21.824-7.99-47.007-5.819-27.22 2.346-40.847 23.746-41.414 24.655-2.182 3.502-1.114 8.092 2.377 10.293 3.485 2.196 8.11 1.157 10.333-2.328.416-.652 10.413-15.988 29.992-17.676 21.705-1.869 40.313 4.868 40.487 4.932a7.5 7.5 0 009.645-4.412zM212.059 330.352a7.502 7.502 0 00-6.15 13.682c.692.313 17.324 7.667 50.091 7.667s49.399-7.354 50.091-7.667c3.759-1.701 5.42-6.11 3.74-9.879s-6.107-5.463-9.885-3.805c-.145.063-14.793 6.35-43.946 6.35-28.962 0-43.609-6.204-43.941-6.348z" />
</svg>
