<svg xmlns="http://www.w3.org/2000/svg" width="32" height="32" fill="#fff" viewBox="0 0 512 512">
  <path
    d="M400.347 153.372l-36.729 9.823a7.499 7.499 0 103.874 14.489l36.729-9.823a7.5 7.5 0 005.307-9.182c-1.071-4.002-5.188-6.381-9.181-5.307z" />
  <path
    d="M509.514 425.586a18.3 18.3 0 001.847-14.005l-8.413-31.337a18.349 18.349 0 00-6.316-9.631 18.287 18.287 0 00.641-11.513l-8.608-32.067a18.345 18.345 0 00-6.317-9.631 18.287 18.287 0 00.641-11.513l-9.784-36.448a18.349 18.349 0 00-6.316-9.631 18.287 18.287 0 00.641-11.513l-9.419-35.087a18.338 18.338 0 00-6.317-9.63 18.288 18.288 0 00.641-11.513l-8.459-31.512a18.349 18.349 0 00-6.316-9.631 18.29 18.29 0 00.641-11.514c-4.581-17.06-20.677-28.276-38.307-26.667l-22.693 2.073c-6.298-9.471-15.432-16.883-25.917-21.14a52.354 52.354 0 001.043-10.818c-.211-28.594-24.028-51.859-53.097-51.859h-86.662c-29.07 0-52.888 23.265-53.095 51.864a52.4 52.4 0 001.043 10.815c-10.492 4.257-19.614 11.664-25.918 21.141l-22.692-2.073c-17.621-1.6-33.727 9.606-38.307 26.668a18.288 18.288 0 00.641 11.513 18.349 18.349 0 00-6.317 9.631l-8.459 31.512a18.281 18.281 0 00.642 11.513 18.346 18.346 0 00-6.317 9.63l-9.419 35.086a18.284 18.284 0 00.642 11.514 18.342 18.342 0 00-6.317 9.63l-9.784 36.448a18.288 18.288 0 00.641 11.513 18.348 18.348 0 00-6.317 9.63l-8.609 32.067a18.291 18.291 0 00.641 11.514 18.348 18.348 0 00-6.317 9.63L.638 411.582a18.305 18.305 0 001.847 14.005 18.417 18.417 0 004.769 5.435l-2.36 24.292a14.522 14.522 0 0010.742 15.479l36.289 9.705c1.269.34 2.546.503 3.805.503a14.533 14.533 0 0013.236-8.537l10.133-22.236c7.189-.942 13.467-6.095 15.458-13.513l8.412-31.337a18.288 18.288 0 00-.641-11.513 18.349 18.349 0 006.317-9.631l8.609-32.068a18.281 18.281 0 00-.642-11.513 18.346 18.346 0 006.317-9.63l2.409-8.973v2.829c0 6.289 2.458 12.015 6.465 16.271-4.007 4.256-6.465 9.982-6.465 16.271v24.408c0 .489.015.975.044 1.463.577 9.443 7.371 17.18 16.341 19.487v22.269c0 9.477 7.719 17.188 17.207 17.188h194.136c9.488 0 17.207-7.711 17.207-17.188v-22.269c8.969-2.308 15.763-10.044 16.34-19.483.03-.484.045-.974.045-1.467v-24.408c0-6.289-2.458-12.015-6.465-16.271 4.007-4.256 6.465-9.982 6.465-16.271v-2.829l2.409 8.973a18.356 18.356 0 006.316 9.63 18.287 18.287 0 00-.641 11.513l8.608 32.068a18.349 18.349 0 006.316 9.631 18.287 18.287 0 00-.641 11.513l8.413 31.337c1.991 7.419 8.267 12.571 15.458 13.513l10.135 22.235a14.54 14.54 0 0017.04 8.033l36.29-9.705a14.52 14.52 0 0010.741-15.479l-2.359-24.292a18.418 18.418 0 004.771-5.434zM217.853 62.85c0-9.292 7.605-16.851 16.953-16.851h42.385c9.347 0 16.953 7.559 16.953 16.851v.112c0 9.292-7.605 16.851-16.953 16.851h-42.385c-9.348 0-16.953-7.559-16.953-16.851v-.112zM55.465 465.916l-35.606-9.522 1.948-20.051 42.016 11.237-8.358 18.336zm103.466-38.678a2.2 2.2 0 01-2.207-2.188v-21.566h25.989c4.142 0 7.5-3.357 7.5-7.5s-3.358-7.5-7.5-7.5h-35.41c-3.625 0-6.742-2.739-6.948-6.1a9.213 9.213 0 01-.017-.554v-24.408c0-4.837 3.949-8.771 8.802-8.771 4.142 0 7.5-3.357 7.5-7.5s-3.358-7.5-7.5-7.5c-4.853 0-8.802-3.935-8.802-8.771v-24.408c0-4.837 3.949-8.771 8.802-8.771 4.142 0 7.5-3.357 7.5-7.5s-3.358-7.5-7.5-7.5c-4.853 0-8.802-3.935-8.802-8.772 0-.45-.04-.892-.116-1.32l7.587-28.263a18.288 18.288 0 00-.641-11.513 18.349 18.349 0 006.317-9.631l3.005-11.193a7.499 7.499 0 10-14.487-3.888l-3.005 11.193c-.494 1.84-2.398 2.928-4.248 2.438a7.593 7.593 0 00-.638-.142l-35.84-9.585c-3.998-1.072-8.112 1.307-9.182 5.308s1.306 8.112 5.308 9.182l35.964 9.618c.206.056.413.102.619.139a3.447 3.447 0 011.998 1.579c.266.46.665 1.41.344 2.605l-9.419 35.087c-.493 1.839-2.398 2.934-4.248 2.437-.069-.019-.139-.036-.208-.053l-.073-.02-37.015-9.899a7.499 7.499 0 10-3.874 14.49l37.015 9.899c.069.019.138.036.207.053l.073.02a3.445 3.445 0 012.447 4.214l-9.784 36.449c-.494 1.838-2.398 2.929-4.248 2.437a7.571 7.571 0 00-1.228-.223l-36.822-9.848a7.5 7.5 0 00-3.875 14.49l37.518 10.034c.333.09.668.155 1.002.197a3.458 3.458 0 011.634 1.448c.266.46.665 1.411.344 2.605l-8.609 32.068c-.493 1.839-2.4 2.929-4.248 2.438a7.476 7.476 0 00-1.432-.239l-36.926-9.876a7.5 7.5 0 10-3.876 14.49l37.816 10.114c.375.101.749.17 1.124.212a3.466 3.466 0 011.523 1.398c.266.46.665 1.41.344 2.605l-8.412 31.337c-.493 1.838-2.399 2.932-4.248 2.437l-58.251-15.579a3.445 3.445 0 01-2.447-4.214l8.412-31.337a3.465 3.465 0 014.248-2.439 7.498 7.498 0 009.183-5.308c.174-.648.257-1.3.257-1.941a7.503 7.503 0 00-5.564-7.241 3.445 3.445 0 01-2.447-4.214l8.609-32.067c.493-1.84 2.403-2.933 4.247-2.438a7.497 7.497 0 009.183-5.308c.174-.648.257-1.3.257-1.941a7.503 7.503 0 00-5.564-7.241 3.445 3.445 0 01-2.447-4.214l9.784-36.448c.493-1.839 2.396-2.932 4.247-2.438a7.495 7.495 0 009.183-5.308c.174-.648.257-1.3.257-1.94a7.503 7.503 0 00-5.564-7.242 3.451 3.451 0 01-2.104-1.609 3.412 3.412 0 01-.344-2.605l9.419-35.087c.493-1.838 2.4-2.931 4.247-2.437 4.003 1.075 8.113-1.306 9.183-5.308.174-.648.257-1.3.257-1.941a7.503 7.503 0 00-5.564-7.241 3.445 3.445 0 01-2.447-4.214l8.459-31.512c.494-1.839 2.402-2.927 4.248-2.438 4.004 1.076 8.113-1.305 9.183-5.308.174-.648.257-1.3.257-1.941a7.503 7.503 0 00-5.564-7.241 3.451 3.451 0 01-2.104-1.609 3.412 3.412 0 01-.344-2.605c2.682-9.993 12.129-16.565 22.456-15.619l42.246 3.859c2.691.246 4.203 1.875 4.864 2.823.658.944 1.658 2.913.963 5.499a7.5 7.5 0 0014.487 3.888 21.568 21.568 0 00-3.145-17.965 21.62 21.62 0 00-15.805-9.183l-1.549-.142c4.934-4.834 11.045-8.426 17.717-10.319l33.307 19.382a7.5 7.5 0 007.544-12.965l-35.207-20.487a7.645 7.645 0 00-.504-.269 37.278 37.278 0 01-.988-8.835c.135-18.671 14.478-34.153 32.914-36.627a31.586 31.586 0 00-4.634 16.507v.112c0 17.562 14.334 31.851 31.953 31.851h13.69v25.83a15.585 15.585 0 00-13.24 12.915l-3.66 21.954a24.773 24.773 0 00-.288 5.66H182.64c-4.142 0-7.5 3.357-7.5 7.5s3.358 7.5 7.5 7.5h55.018a24.68 24.68 0 0010.841 6.975v34.975H182.64c-4.142 0-7.5 3.357-7.5 7.5s3.358 7.5 7.5 7.5h65.859v41.952H182.64c-4.142 0-7.5 3.357-7.5 7.5s3.358 7.5 7.5 7.5h65.859v41.951H182.64c-4.142 0-7.5 3.357-7.5 7.5s3.358 7.5 7.5 7.5h65.859v41.459h-40.062c-4.142 0-7.5 3.357-7.5 7.5s3.358 7.5 7.5 7.5h40.062v21.566c0 .762.113 1.496.324 2.188h-89.892zm97.068-257.93a9.72 9.72 0 01-7.431-3.443 9.708 9.708 0 01-2.173-7.886l3.66-21.954a.635.635 0 01.63-.532h10.627c.313 0 .579.224.631.532l3.66 21.954v.001a9.705 9.705 0 01-2.172 7.884 9.722 9.722 0 01-7.432 3.444zm97.068 257.929h-89.893a7.492 7.492 0 00.324-2.188v-21.566h91.775v21.566h.001a2.2 2.2 0 01-2.207 2.188zm103.466 38.679l-8.357-18.336 42.015-11.237 1.947 20.051-35.605 9.522zm39.997-47.841a3.448 3.448 0 01-2.103 1.609l-58.251 15.579c-1.848.492-3.755-.599-4.249-2.437l-8.413-31.337a3.411 3.411 0 01.345-2.605 3.448 3.448 0 012.103-1.609 7.484 7.484 0 002.044-.887l34.639-9.265a7.498 7.498 0 005.307-9.182c-1.07-4.002-5.186-6.381-9.182-5.308l-36.141 9.666a7.484 7.484 0 00-1.548.603 3.468 3.468 0 01-3.243-2.556l-8.608-32.068a3.412 3.412 0 01.345-2.605 3.448 3.448 0 012.103-1.609 7.51 7.51 0 001.285-.472l36.663-9.806a7.5 7.5 0 10-3.874-14.49l-37.537 10.039a7.376 7.376 0 00-.998.343 3.457 3.457 0 01-3.662-2.542l-9.785-36.449a3.412 3.412 0 01.345-2.605 3.448 3.448 0 012.103-1.609 7.47 7.47 0 002.244-1.017l35.75-9.561a7.5 7.5 0 005.308-9.182c-1.07-4.003-5.187-6.383-9.182-5.308l-37.471 10.021a7.463 7.463 0 00-1.668.667 3.465 3.465 0 01-3.104-2.548l-9.419-35.087a3.411 3.411 0 01.345-2.605 3.445 3.445 0 012.103-1.609c.235-.063.466-.137.69-.221l36.094-9.653a7.498 7.498 0 005.307-9.182c-1.07-4.003-5.189-6.383-9.182-5.308l-36.514 9.765c-.19.051-.376.108-.559.172a3.466 3.466 0 01-3.961-2.503l-3.308-12.318a7.5 7.5 0 10-14.486 3.89l3.308 12.317a18.349 18.349 0 006.316 9.631 18.287 18.287 0 00-.641 11.513l7.587 28.263c-.076.429-.116.87-.116 1.32 0 4.837-3.949 8.772-8.803 8.772-4.142 0-7.5 3.357-7.5 7.5s3.357 7.5 7.5 7.5c4.853 0 8.803 3.935 8.803 8.771v24.408c0 4.837-3.949 8.771-8.803 8.771-4.142 0-7.5 3.357-7.5 7.5s3.357 7.5 7.5 7.5c4.853 0 8.803 3.935 8.803 8.771v24.408c0 .183-.005.363-.017.547-.206 3.367-3.323 6.106-6.948 6.106H263.499v-41.459h65.859c4.142 0 7.5-3.357 7.5-7.5s-3.357-7.5-7.5-7.5h-65.859v-41.951h65.859c4.142 0 7.5-3.357 7.5-7.5s-3.357-7.5-7.5-7.5h-65.859v-41.952h65.859c4.142 0 7.5-3.357 7.5-7.5s-3.357-7.5-7.5-7.5h-65.859v-34.975a24.686 24.686 0 0010.841-6.975h55.018c4.142 0 7.5-3.357 7.5-7.5s-3.357-7.5-7.5-7.5h-48.671a24.84 24.84 0 00-.289-5.661l-3.66-21.953a15.583 15.583 0 00-13.239-12.915v-25.83h13.693c17.619 0 31.952-14.289 31.952-31.851v-.112a31.59 31.59 0 00-4.634-16.507c18.435 2.475 32.779 17.956 32.913 36.626a37.245 37.245 0 01-1.003 8.9 7.61 7.61 0 00-.375.204l-35.207 20.487a7.5 7.5 0 007.545 12.965l33.27-19.36c6.634 1.897 12.72 5.482 17.638 10.298l-1.547.142a21.621 21.621 0 00-15.805 9.184 21.566 21.566 0 00-3.143 17.964 7.5 7.5 0 009.187 5.299 7.499 7.499 0 005.299-9.187c-.693-2.586.306-4.555.964-5.498.661-.949 2.173-2.578 4.864-2.824l42.245-3.859c10.332-.94 19.773 5.626 22.457 15.619a3.411 3.411 0 01-.345 2.605 3.448 3.448 0 01-2.103 1.609 7.503 7.503 0 00-5.564 7.241 7.5 7.5 0 009.439 7.249c1.853-.493 3.755.601 4.249 2.438l8.459 31.512a3.411 3.411 0 01-.345 2.605 3.439 3.439 0 01-2.103 1.609 7.503 7.503 0 00-5.564 7.241 7.502 7.502 0 009.439 7.249c1.845-.49 3.755.598 4.249 2.437l9.419 35.087a3.411 3.411 0 01-.345 2.605 3.448 3.448 0 01-2.103 1.609 7.503 7.503 0 00-5.564 7.241 7.502 7.502 0 009.439 7.249c1.853-.492 3.755.601 4.249 2.438l9.784 36.448a3.411 3.411 0 01-.345 2.605 3.439 3.439 0 01-2.102 1.609 7.503 7.503 0 00-5.564 7.241c0 .642.083 1.293.257 1.941 1.069 4.001 5.184 6.375 9.182 5.308 1.853-.491 3.755.601 4.249 2.438l8.608 32.067a3.411 3.411 0 01-.345 2.605 3.448 3.448 0 01-2.103 1.609 7.503 7.503 0 00-5.564 7.241c0 .642.083 1.293.257 1.941a7.5 7.5 0 009.182 5.308c1.853-.494 3.755.6 4.249 2.438l8.413 31.337a3.432 3.432 0 01-.346 2.612z" />
  <path
    d="M148.381 163.194l-36.402-9.735a7.5 7.5 0 00-3.875 14.49l36.402 9.735c.649.174 1.3.257 1.942.257a7.5 7.5 0 001.933-14.747z" />
  </svg>
