<svg width="32" height="32" fill="#fff" viewBox="0 0 512.327 512.327" xmlns="http://www.w3.org/2000/svg">
  <path
    d="M272.087 428.987a7.499 7.499 0 00-10.417 1.995c-12.385 18.253-27.659 34.115-45.399 47.143-34.832 25.582-81.639 25.581-116.471 0-46.984-34.505-75.571-87.688-78.432-145.928l-6.32-122.629c-.666-13.537 5.575-26.245 16.693-33.995 11.12-7.75 25.204-9.208 37.673-3.9l4.045 1.722a7.5 7.5 0 105.875-13.801l-4.045-1.722c-17.253-7.344-36.741-5.327-52.125 5.396C7.781 173.99-.854 191.574.067 210.322l6.32 122.629c3.083 62.752 33.895 120.073 84.534 157.264 19.595 14.391 42.803 21.997 67.115 21.997s47.52-7.607 67.114-21.998c19.121-14.043 35.584-31.138 48.932-50.81a7.498 7.498 0 00-1.995-10.417zM292.907 163.266c-15.384-10.723-34.87-12.74-52.124-5.396l-50.642 21.556c-20.403 8.685-43.807 8.685-64.21 0l-16.763-7.136a7.5 7.5 0 00-9.838 3.963 7.498 7.498 0 003.963 9.838l16.763 7.136c24.136 10.273 51.822 10.274 75.96 0l50.642-21.556c12.472-5.309 26.554-3.85 37.672 3.899 11.118 7.75 17.359 20.459 16.695 33.978l-6.321 122.666c-1.215 24.731-7.096 48.693-17.479 71.22a7.5 7.5 0 0013.623 6.278c11.189-24.278 17.527-50.105 18.837-76.744l6.321-122.666c.92-18.729-7.716-36.313-23.099-47.036z" />
  <path
    d="M95.766 383.488c-4.578-2.565-10.157-1.569-13.564 2.42-3.409 3.99-3.521 9.655-.272 13.776l21.937 27.838c13.162 16.702 32.906 26.28 54.17 26.28 21.265 0 41.009-9.579 54.171-26.28l21.936-27.837c3.249-4.121 3.138-9.786-.271-13.776-3.408-3.99-8.986-4.985-13.565-2.421a127.722 127.722 0 01-62.271 16.25 127.732 127.732 0 01-62.271-16.25zm104.659 34.75c-10.3 13.069-25.75 20.564-42.39 20.564-16.639 0-32.089-7.496-42.389-20.564l-10.922-13.86c16.893 6.81 35.032 10.359 53.311 10.359s36.419-3.549 53.312-10.359zM489.161 9.873C473.775-.85 454.29-2.867 437.036 4.477l-50.642 21.556c-20.405 8.685-43.808 8.684-64.209 0L271.542 4.477c-17.255-7.345-36.739-5.327-52.123 5.396-15.385 10.723-24.021 28.307-23.101 47.038l4.169 84.838c.203 4.137 3.747 7.32 7.859 7.123a7.5 7.5 0 007.123-7.859L211.3 56.175c-.665-13.537 5.576-26.246 16.695-33.996 11.12-7.75 25.202-9.207 37.671-3.899l50.643 21.556c24.136 10.274 51.821 10.274 75.959 0L442.91 18.28c12.47-5.308 26.553-3.85 37.672 3.899 11.119 7.75 17.36 20.459 16.695 33.996l-6.321 128.647a192.879 192.879 0 01-8.229 47.008 7.5 7.5 0 007.174 9.699 7.502 7.502 0 007.168-5.305 207.898 207.898 0 008.87-50.667L512.26 56.91c.92-18.73-7.716-36.314-23.099-47.037zM480.871 258.27a7.5 7.5 0 00-10.063 3.351c-13.615 27.209-33.769 51.107-58.282 69.11-23.19 17.031-52.576 23.046-80.62 16.503a7.502 7.502 0 00-9.008 5.6 7.5 7.5 0 005.6 9.008 113.665 113.665 0 0025.837 2.979c23.913 0 47.422-7.569 67.07-22 26.421-19.403 48.143-45.161 62.817-74.487a7.501 7.501 0 00-3.351-10.064zM334.733 253.272a7.498 7.498 0 00-6.399 8.458 7.494 7.494 0 008.458 6.4c27.364-3.793 55.696 1.546 79.77 15.029a10.908 10.908 0 005.347 1.412c3.071 0 6.073-1.325 8.217-3.834 3.408-3.99 3.521-9.654.272-13.776l-21.938-27.837c-17.291-21.943-45.882-31.256-72.844-23.725a7.5 7.5 0 004.035 14.447c21.109-5.897 43.494 1.389 57.027 18.562l10.938 13.881c-22.966-9.229-48.272-12.425-72.883-9.017zM122.083 216.676c-28.12-12.923-53.923-12.816-76.686.319a7.5 7.5 0 007.496 12.993c18.566-10.711 39.147-10.608 62.926.319a7.499 7.499 0 009.946-3.683 7.499 7.499 0 00-3.682-9.948zM104.157 300.5c1.298.384 2.615.573 3.92.573 2.895 0 5.727-.93 8.126-2.722 3.467-2.59 5.455-6.558 5.455-10.887v-10.219c0-20.765-16.716-37.761-37.271-37.887h-.684c-20.546.126-37.262 17.122-37.262 37.887v9.937c0 4.322 2.081 8.431 5.566 10.99 3.514 2.579 7.904 3.313 12.051 2.012 12.749-3.998 25.865-3.895 40.099.316zm-42.716-15.189v-8.065c0-12.544 10.027-22.812 22.344-22.887h.52c12.326.076 22.354 10.343 22.354 22.887v8.369c-8.011-2.214-15.9-3.32-23.626-3.32a78.028 78.028 0 00-21.592 3.016zM270.664 227.24a7.5 7.5 0 00-2.748-10.245c-22.763-13.134-48.562-13.242-76.686-.319a7.5 7.5 0 006.263 13.63c23.778-10.927 44.36-11.031 62.926-.319a7.501 7.501 0 0010.245-2.747zM229.602 239.359h-.685c-20.546.126-37.261 17.122-37.261 37.887v10.219c0 4.329 1.988 8.297 5.455 10.887 2.399 1.792 5.23 2.722 8.126 2.722 1.305 0 2.623-.189 3.92-.573 14.233-4.212 27.349-4.315 40.098-.315 4.145 1.301 8.538.567 12.051-2.012a13.684 13.684 0 005.567-10.99v-9.937c.001-20.766-16.715-37.762-37.271-37.888zm22.272 45.952c-14.379-4.122-29.571-4.02-45.217.303v-8.369c0-12.544 10.027-22.812 22.343-22.887h.521c12.326.076 22.354 10.343 22.354 22.887v8.066z" />
  <path
    d="M319.716 61.493c-28.12-12.923-53.923-12.816-76.686.319a7.5 7.5 0 007.496 12.993c18.565-10.711 39.148-10.608 62.926.319a7.499 7.499 0 009.946-3.683 7.5 7.5 0 00-3.682-9.948zM313.723 86.068c-3.512-2.58-7.906-3.312-12.051-2.012-12.748 4-25.864 3.896-40.099-.315-4.178-1.235-8.564-.451-12.045 2.149-3.467 2.59-5.455 6.558-5.455 10.887v10.219c0 20.766 16.715 37.762 37.252 37.887l.357.001.346-.001c20.546-.125 37.261-17.122 37.261-37.887v-9.937a13.682 13.682 0 00-5.566-10.991zm-9.433 20.927c0 12.545-10.027 22.812-22.361 22.887h-.502c-12.325-.075-22.353-10.342-22.353-22.887v-8.368c15.643 4.322 30.836 4.424 45.216.304zM468.296 72.056a7.5 7.5 0 00-2.748-10.245c-22.763-13.134-48.563-13.242-76.686-.319a7.5 7.5 0 006.263 13.63c23.777-10.928 44.36-11.03 62.926-.319a7.5 7.5 0 0010.245-2.747zM459.049 85.889c-3.481-2.6-7.87-3.383-12.044-2.148-14.234 4.211-27.349 4.315-40.099.315-4.144-1.299-8.538-.568-12.051 2.012a13.686 13.686 0 00-5.566 10.99v9.937c0 20.766 16.715 37.762 37.252 37.887l.357.001.346-.001c20.546-.125 37.261-17.122 37.261-37.887V96.776c0-4.329-1.988-8.298-5.456-10.887zm-9.544 21.106c0 12.545-10.027 22.812-22.361 22.887h-.502c-12.325-.075-22.353-10.342-22.353-22.887V98.93c14.38 4.12 29.573 4.019 45.216-.304z" />
</svg>
