<svg xmlns="http://www.w3.org/2000/svg" width="32" height="32" fill="#fff" viewBox="0 0 512 512">
  <path
    d="M409.588 494.481l-25.6-486.4A8.54 8.54 0 00375.463 0H136.529a8.526 8.526 0 00-8.516 8.09l-25.6 486.4c-.239 4.548 3.14 8.491 7.671 8.943l85.333 8.533c4.471.384 8.55-2.671 9.267-7.117l51.311-315.204 51.311 315.196A8.547 8.547 0 00315.72 512c.282 0 .563-.017.862-.043l85.333-8.533c4.532-.452 7.903-4.395 7.673-8.943zm-86.725-.307L264.418 135.16a8.533 8.533 0 00-16.844.009l-58.445 359.014-69.248-6.929 24.747-470.187h222.737l24.747 470.178-69.249 6.929z" />
  <path d="M136.529 34.133h238.933V51.2H136.529z" />
  <path
    d="M247.463 8.533v111.863c-10.752-9.907-17.058-23.919-17.067-39.074V8.533h-17.067v72.789c.017 26.778 14.899 50.859 38.852 62.839a8.467 8.467 0 003.814.905 8.535 8.535 0 004.48-1.271 8.546 8.546 0 004.053-7.262v-128h-17.065zM170.825 41.02l-1.024 5.171c-4.13 20.54-16.964 37.82-35.354 47.676h-6.451v17.067h8.533a8.587 8.587 0 003.823-.896c24.055-12.058 40.883-34.099 46.191-60.51l1.024-5.205-16.742-3.303zM377.553 93.858c-18.398-9.856-31.232-27.128-35.354-47.642l-1.024-5.205-16.751 3.302 1.033 5.24c5.308 26.377 22.144 48.418 46.182 60.476 1.186.597 2.5.905 3.823.905h8.533V93.858h-6.442z" />
</svg>
