<svg width="32" height="32" fill="#fff" viewBox="-88 0 480 480" xmlns="http://www.w3.org/2000/svg">
  <path
    d="M291.508 70.352l-62.16-67.758a7.947 7.947 0 00-2.282-1.656 6.37 6.37 0 00-.648-.282 7.83 7.83 0 00-2.84-.656H79.348a8.005 8.005 0 00-2.875.633c-.215.086-.422.168-.63.27a7.902 7.902 0 00-2.288 1.663l-60.961 66.48c-17.89 19.571-16.563 49.93 2.969 67.864l59.886 54.93-1.672 1.77c-12.03 12.554-14.507 31.472-6.109 46.702l21.437 39.36A31.717 31.717 0 00112.585 296c1.548.223 3.106.336 4.665.336.746 0 1.465-.168 2.2-.215V472a8 8 0 0016 0v-26.23l16-5.336V464a8 8 0 0016 0v-28.895l16-5.335V456a8 8 0 0016 0v-31.566l16-5.329V440a8 8 0 0016 0v-55.594l16-5.316V400a8 8 0 0016 0V163.312l26.534-26.511c18.243-18.16 18.914-47.473 1.524-66.45zm-104.195 3.585l-34.399 36.2L114.844 72h74.308zM214.002 16l-4.05 24.223A39.184 39.184 0 01203.531 56H99.641a40.134 40.134 0 01-6.856-16.504L88.891 16zm-189.6 63.887l49.863-54.399L77.02 42.09a56.307 56.307 0 0012.488 27.039l.086.062.129.184c.96 1.05 1.918 2.098 2.968 3.137l49.16 49.242-55.464 58.469-60-55.078c-13.032-11.954-13.926-32.2-2-45.258zm111.046 211.425l4.38-4.375 75.62-75.625V402.23l-80 26.672zm112 70.918l-16 5.32V195.313l16-16zm31.2-236.796l-60.88 60.878-89.277 89.282A16.006 16.006 0 01103.113 272L81.66 232.625a23.838 23.838 0 013.672-28L211.09 72.145c.039-.047.625-.68.672-.72a30.1 30.1 0 002.015-2.335l.098-.137.145-.168.07-.129a55.3 55.3 0 0011.648-25.824l2.903-17.352 51.066 55.665c11.594 12.664 11.129 32.222-1.059 44.32zm0 0" />
</svg>
