<svg width="32" height="32" fill="#fff" viewBox="0 0 512 512" xmlns="http://www.w3.org/2000/svg">
  <path
    d="M95.941 264.099a7.48 7.48 0 003.296-.767l36.833-18.055 15.966 24.836c1.716 2.671 4.587 4.207 7.653 4.207.645 0 1.299-.068 1.953-.208 3.758-.804 6.556-3.779 7.129-7.577l6.434-40.441 30.24 29.617a9.152 9.152 0 0010.458 1.661 9.154 9.154 0 005.015-9.327l-4.667-37.375 27.742 26.506a9.154 9.154 0 0011.086 1.19 9.154 9.154 0 003.996-10.409l-11.268-37.893 34.276 25.062a7.5 7.5 0 108.854-12.108l-39.585-28.944 15.914-26.402c.654-1.084 1.652-1.388 2.188-1.473s1.581-.102 2.535.729l23.936 20.83a7.5 7.5 0 109.847-11.315l-23.936-20.83a18.076 18.076 0 00-14.715-4.231 18.08 18.08 0 00-12.702 8.547l-15.749 26.129a9.14 9.14 0 00-10.19 11.637l.673 2.265c-3.465 3.667-13.355 9.533-13.355 9.533l-1.079-1.031a9.163 9.163 0 00-10.429-1.557 9.163 9.163 0 00-4.963 9.301l.16 1.281-21.362 10.471-.89-.872a9.109 9.109 0 00-9.301-2.138 9.107 9.107 0 00-6.139 7.307l-.604 4.004-19.751 9.681c-2.333-3.139-6.727-3.981-10.065-1.835a7.502 7.502 0 00-3.17 8.322l-35.57 17.436a7.5 7.5 0 003.306 14.236zm137.95-68.204l4.521 15.204-11.173-10.675a57.523 57.523 0 006.652-4.529zm-32.438 17.333l2.501 20.027-14.462-14.164zm-45.196 35.713l-6.628-10.31 8.838-4.332z" />
  <path
    d="M497.991 299.657c.026-.286-.288-28.794-.288-42.514 0-.166-.005-.328-.017-.494-.845-12.015-8.307-20.223-14.89-27.465-2.285-2.513-4.466-4.918-6.333-7.39 6.11-4.995 7.559-13.666 3.319-20.384l-6.905-10.943c-3.543-5.613-10.027-8.233-16.228-6.982l-8.186-38.041a10.673 10.673 0 00-10.435-8.428H397.26c-9.124 0-16.521 7.396-16.52 16.521v27.882c0 1.989-.25 3.982-.87 5.872-2.652 8.09-10.362 13.214-18.802 12.568-3.991-.305-7.743-2.032-10.763-4.66l-20.404-17.756a7.5 7.5 0 00-10.73.911c-2.602 3.177-1.979 7.914 1.119 10.61l20.444 17.791a33.165 33.165 0 0026.588 7.809 33.173 33.173 0 0023.254-15.076 33.164 33.164 0 005.163-17.783v-28.168c0-.84.681-1.521 1.521-1.521h37.273l8.158 37.91-28.811 14.633c-3.905 1.983-6.812 5.542-7.975 9.765s-.49 8.768 1.847 12.471l11.031 17.482c1.508 2.389 3.555 4.427 6.056 5.742a15.66 15.66 0 007.306 1.816 15.64 15.64 0 009.526-3.236l22.915-17.636c2.255 2.97 4.712 5.676 7.109 8.313 5.587 6.146 10.422 11.464 11.005 18.167 0 9.452.008 19.118.115 28.734a47.783 47.783 0 00-23.61-6.219H366.06a129.32 129.32 0 00-75.163 24.087l-6.366 4.547a41.838 41.838 0 01-24.319 7.793H58.401a90.933 90.933 0 01-29.746-5.003l-11.463-3.968a18.355 18.355 0 018.089-7.831l44.991-22.053c3.425-1.679 5.27-5.636 4.034-9.245a7.502 7.502 0 00-10.409-4.336l-45.218 22.165c-4.611 2.261-8.678 6.194-11.855 10.813-4.389 6.382-6.626 14.005-6.816 21.748l-.008.33c0 31.504 25.631 57.135 57.135 57.135h401.311c26.395 0 48.443-20.95 48.847-47.342.167-10.9-3.319-20.991-9.302-29.141zm-65.466-62.947c-.052.04-.211.163-.472.115a.563.563 0 01-.403-.271l-11.211-17.766c-.035-.056-.142-.224-.071-.48.07-.256.249-.346.307-.376l38.736-19.675a.596.596 0 01.781.215l6.905 10.943a.597.597 0 01-.142.796zm-48.847 58.248v14.271a7.5 7.5 0 0015 0v-14.271h23.18v66.183h-23.18v-19.949a7.5 7.5 0 00-15 0v19.949h-23.18v-66.034c1.849-.089 3.703-.149 5.566-.149zm-38.18 66.182h-23.18v-57.5a113.11 113.11 0 0123.18-6.82zm-52.245-40.341l6.366-4.547a115.664 115.664 0 017.699-5.046v49.935h-23.18v-35.03a57.279 57.279 0 009.115-5.312zm-24.115 9.89v30.452h-23.18v-29.754h14.257a57.502 57.502 0 008.923-.698zm-137.72.697h23.18v29.754h-23.18zm-15 29.754h-23.18v-29.754h23.18zm53.18-29.754h23.18v29.754h-23.18zm38.18 0h23.18v29.754h-23.18zM15.15 322.582l8.598 2.976a105.845 105.845 0 0016.31 4.217v27.741c-13.713-6.104-23.589-19.317-24.908-34.934zm39.908 38.507v-29.773c1.114.035 23.18.069 23.18.069v29.754c0 .001-22.492-.016-23.18-.05zm381.8.051v-66.183s22.903.014 23.18.021v66.141c-.276.007-23.18.021-23.18.021zm38.181-4.04v-58.102c10.275 5.622 17.26 16.535 17.26 29.051s-6.985 23.429-17.26 29.051z" />
</svg>
